HIERARCHY
ROOT Pelvis
{
	OFFSET 0.000000 0.000000 0.000000
	CHANNELS 6 Xposition Yposition Zposition Xrotation Yrotation Zrotation
	JOINT LeftUpLeg_virtual
	{
		OFFSET 0.000000 0.000000 0.000000
		CHANNELS 3 Xrotation Yrotation Zrotation
		JOINT LeftUpLeg
		{
			OFFSET 8.479700 -4.795502 -0.379100
			CHANNELS 3 Xrotation Yrotation Zrotation
			JOINT LeftLeg
			{
				OFFSET 0.024144 -32.555107 0.112900
				CHANNELS 3 Xrotation Yrotation Zrotation
				JOINT LeftFoot
				{
					OFFSET -0.024144 -32.638630 -3.012600
					CHANNELS 3 Xrotation Yrotation Zrotation
					JOINT LeftToeBase
					{
						OFFSET 0.970200 -13.225400 11.864200
						CHANNELS 3 Xrotation Yrotation Zrotation
						End Site
						{
							OFFSET 0 0 0
						}
					}
				}
			}
		}
	}
	JOINT RightUpLeg_virtual
	{
		OFFSET 0.000000 0.000000 0.000000
		CHANNELS 3 Xrotation Yrotation Zrotation
		JOINT RightUpLeg
		{
			OFFSET -8.479700 -4.795502 -0.379100
			CHANNELS 3 Xrotation Yrotation Zrotation
			JOINT RightLeg
			{
				OFFSET -0.023144 -32.555092 0.112900
				CHANNELS 3 Xrotation Yrotation Zrotation
				JOINT RightFoot
				{
					OFFSET 0.023144 -32.638641 -3.012700
					CHANNELS 3 Xrotation Yrotation Zrotation
					JOINT RightToeBase
					{
						OFFSET -0.970200 -13.225400 11.864200
						CHANNELS 3 Xrotation Yrotation Zrotation
						End Site
						{
							OFFSET 0 0 0
						}
					}
				}
			}
		}
	}
	JOINT Hips_virtual
	{
		OFFSET 0.000000 0.000000 0.000000
		CHANNELS 3 Xrotation Yrotation Zrotation
		JOINT Hips
		{
			OFFSET -0.000000 -0.000000 -0.000000
			CHANNELS 3 Xrotation Yrotation Zrotation
			JOINT Spine
			{
				OFFSET 0.000000 7.722000 1.166200
				CHANNELS 3 Xrotation Yrotation Zrotation
				JOINT Spine1
				{
					OFFSET 0.000000 12.024101 0.248800
					CHANNELS 3 Xrotation Yrotation Zrotation
					JOINT Spine2
					{
						OFFSET 0.000000 11.502998 -0.491200
						CHANNELS 3 Xrotation Yrotation Zrotation
						JOINT Neck_virtual
						{
							OFFSET 0.000000 0.000000 0.000000
							CHANNELS 3 Xrotation Yrotation Zrotation
							JOINT Neck
							{
								OFFSET 0.000000 18.430702 -3.123100
								CHANNELS 3 Xrotation Yrotation Zrotation
								JOINT Head
								{
									OFFSET 0.000000 9.051102 1.034000
									CHANNELS 3 Xrotation Yrotation Zrotation
									End Site
									{
										OFFSET 0 0 0
									}
								}
							}
						}
						JOINT LeftShoulder_virtual
						{
							OFFSET 0.000000 0.000000 0.000000
							CHANNELS 3 Xrotation Yrotation Zrotation
							JOINT LeftShoulder
							{
								OFFSET 6.197800 13.665199 -4.064700
								CHANNELS 3 Xrotation Yrotation Zrotation
								JOINT LeftArm
								{
									OFFSET 7.778100 -0.187103 -1.709300
									CHANNELS 3 Xrotation Yrotation Zrotation
									JOINT LeftForeArm
									{
										OFFSET 22.049376 0.000000 0.000000
										CHANNELS 3 Xrotation Yrotation Zrotation
										JOINT LeftHand
										{
											OFFSET 23.009392 0.000000 0.000000
											CHANNELS 3 Xrotation Yrotation Zrotation
											End Site
											{
												OFFSET 0 0 0
											}
										}
									}
								}
							}
						}
						JOINT RightShoulder_virtual
						{
							OFFSET 0.000000 0.000000 0.000000
							CHANNELS 3 Xrotation Yrotation Zrotation
							JOINT RightShoulder
							{
								OFFSET -6.197800 13.665199 -4.064700
								CHANNELS 3 Xrotation Yrotation Zrotation
								JOINT RightArm
								{
									OFFSET -7.778100 -0.187103 -1.709300
									CHANNELS 3 Xrotation Yrotation Zrotation
									JOINT RightForeArm
									{
										OFFSET -22.049376 0.000000 0.000000
										CHANNELS 3 Xrotation Yrotation Zrotation
										JOINT RightHand
										{
											OFFSET -23.009392 0.000000 0.000000
											CHANNELS 3 Xrotation Yrotation Zrotation
											End Site
											{
												OFFSET 0 0 0
											}
										}
									}
								}
							}
						}
					}
				}
			}
		}
	}
}
MOTION
Frames: 9
Frame Time: 0.03333333
-27.551239 80.985886 -26.366997 0.000000 0.000000 0.000000 4.585620 0.644099 -1.742992 -44.153768 -0.231073 9.358727 49.266995 8.583230 0.933527 13.745673 12.777154 -4.212462 0.000000 0.000000 0.000000 4.585620 0.644099 -1.742992 -3.351968 -11.754074 -7.230315 24.397000 -8.367240 -0.524253 -9.179206 -3.760430 14.222675 0.000000 0.000000 0.000000 4.585620 0.644099 -1.742992 0.000000 0.000000 0.000000 1.763250 1.016351 -5.403247 2.669527 2.765867 -1.144403 0.000000 0.000000 0.000000 2.711151 2.741216 -1.111868 -0.169237 1.518459 2.033062 0.000000 0.000000 0.000000 2.711151 2.741216 -1.111868 1.433978 -4.062821 -11.219142 -3.341572 24.380987 -39.671296 0.000040 -68.585857 0.000029 0.000000 0.000000 0.000000 2.711151 2.741216 -1.111868 0.748684 -2.655728 10.687282 -17.948788 -16.241859 40.821264 -0.000003 12.072948 -0.000001 0.000000 0.000000 0.000000 
-27.260683 81.283691 -26.383701 0.000000 0.000000 0.000000 4.763768 -0.161109 -1.533188 -42.317052 -0.351665 10.839269 50.378000 8.637246 1.023072 13.977870 14.922823 -1.680525 0.000000 0.000000 0.000000 4.763768 -0.161109 -1.533188 -3.562675 -11.555750 -8.201595 23.486092 -7.092606 -0.536339 -7.996201 -2.694643 14.953748 0.000000 0.000000 0.000000 4.763768 -0.161109 -1.533188 0.000000 0.000000 0.000000 1.586025 1.412629 -5.653519 2.374024 3.259592 -1.400063 0.000000 0.000000 0.000000 2.430398 3.238701 -1.364457 -0.224070 1.432987 2.227389 0.000000 0.000000 0.000000 2.430398 3.238701 -1.364457 1.467532 -4.240643 -11.592416 5.654171 26.367474 -43.866811 0.000017 -67.796731 0.000021 0.000000 0.000000 0.000000 2.430398 3.238701 -1.364457 0.734773 -2.719270 10.596599 -18.801310 -15.324282 39.607058 0.000001 12.657100 -0.000005 0.000000 0.000000 0.000000 
-26.944828 81.543945 -26.362617 0.000000 0.000000 0.000000 5.089682 -0.824172 -1.371562 -40.173342 -0.435799 12.461707 50.335499 8.655965 1.123415 14.008394 17.221607 0.196905 0.000000 0.000000 0.000000 5.089682 -0.824172 -1.371562 -3.781741 -11.367554 -9.106825 22.476052 -5.558574 -0.478770 -6.883963 -1.868017 15.688968 0.000000 0.000000 0.000000 5.089682 -0.824172 -1.371562 0.000000 0.000000 0.000000 1.384000 1.766168 -5.832069 2.032630 3.712427 -1.607211 0.000000 0.000000 0.000000 2.103379 3.696492 -1.570154 -0.275676 1.345611 2.361038 0.000000 0.000000 0.000000 2.103379 3.696492 -1.570154 1.481607 -4.316642 -11.747590 12.772036 27.916453 -48.290882 0.000006 -66.123983 -0.000000 0.000000 0.000000 0.000000 2.103379 3.696492 -1.570154 0.715792 -2.807282 10.472896 -19.463264 -14.733596 38.616667 -0.000009 13.178800 0.000022 0.000000 0.000000 0.000000 
-26.603371 81.757965 -26.321819 0.000000 0.000000 0.000000 5.521411 -1.263625 -1.270143 -37.790320 -0.428452 14.167499 49.206530 8.666629 1.228301 13.693387 19.593641 1.681913 0.000000 0.000000 0.000000 5.521411 -1.263625 -1.270143 -3.930862 -11.181885 -9.873267 21.343848 -3.660301 -0.342332 -5.885084 -1.577776 16.336824 0.000000 0.000000 0.000000 5.521411 -1.263625 -1.270143 0.000000 0.000000 0.000000 1.171076 2.071763 -5.921710 1.667892 4.119297 -1.757988 0.000000 0.000000 0.000000 1.751484 4.109059 -1.720882 -0.329438 1.250088 2.443574 0.000000 0.000000 0.000000 1.751484 4.109059 -1.720882 1.475785 -4.286669 -11.679664 17.858440 29.300371 -52.334371 -0.000004 -63.835303 -0.000007 0.000000 0.000000 0.000000 1.751484 4.109059 -1.720882 0.694853 -2.907719 10.339739 -19.916138 -14.501854 37.786755 0.000005 13.690953 -0.000011 0.000000 0.000000 0.000000 
-26.227140 81.899414 -26.271797 0.000000 0.000000 0.000000 6.013200 -1.412009 -1.252203 -35.278200 -0.271631 15.914660 47.075525 8.691924 1.328232 13.157442 21.886127 3.094458 0.000000 0.000000 0.000000 6.013200 -1.412009 -1.252203 -3.960654 -10.983798 -10.462806 20.154591 -1.972231 -0.192491 -5.100636 -1.445809 16.973457 0.000000 0.000000 0.000000 6.013200 -1.412009 -1.252203 0.000001 0.000000 0.000000 0.957443 2.323943 -5.893302 1.297684 4.466679 -1.850174 0.000000 0.000000 0.000000 1.390938 4.462439 -1.814233 -0.382005 1.148457 2.483358 0.000000 0.000000 0.000000 1.390938 4.462439 -1.814233 1.451631 -4.159458 -11.406982 21.297295 30.658933 -55.705595 0.000037 -61.187437 0.000037 0.000000 0.000000 0.000000 1.390938 4.462439 -1.814233 0.674193 -3.020968 10.232319 -20.144685 -14.588014 37.020875 -0.000005 14.207998 0.000017 0.000000 0.000000 0.000000 
-25.801435 81.939537 -26.220131 0.000000 0.000000 0.000000 6.528332 -1.212031 -1.335635 -32.779130 0.064634 17.680856 44.072137 8.731378 1.410094 12.724007 23.857410 4.582778 0.000000 0.000000 0.000000 6.528332 -1.212031 -1.335635 -3.852502 -10.769091 -10.858665 19.014106 -0.779530 -0.068338 -4.626283 -1.345918 17.595354 0.000000 0.000000 0.000000 6.528332 -1.212031 -1.335635 0.000000 0.000000 0.000000 0.748622 2.512877 -5.724688 0.935647 4.729538 -1.887952 0.000000 0.000000 0.000000 1.033656 4.731258 -1.854255 -0.441561 1.030673 2.502779 0.000000 0.000000 0.000000 1.033656 4.731258 -1.854255 1.413562 -3.961266 -10.979305 23.536390 32.038307 -58.288541 0.000006 -58.385570 0.000031 0.000000 0.000000 0.000000 1.033656 4.731258 -1.854255 0.656532 -3.133580 10.169166 -20.170496 -14.903041 36.224325 -0.000002 14.706338 0.000004 0.000000 0.000000 0.000000 
-25.308754 81.858299 -26.172375 0.000000 0.000000 0.000000 7.048928 -0.608278 -1.524783 -30.450479 0.578595 19.454969 40.373149 8.760651 1.457557 12.809590 25.188635 6.014434 0.000000 0.000000 0.000000 7.048928 -0.608278 -1.524783 -3.589897 -10.551378 -11.065222 17.985731 -0.201603 0.004889 -4.523758 -1.289797 18.169551 0.000000 0.000000 0.000000 7.048928 -0.608278 -1.524783 0.000000 0.000000 0.000000 0.546718 2.623386 -5.412119 0.581116 4.883679 -1.873774 0.000000 0.000000 0.000000 0.677572 4.890839 -1.843219 -0.500278 0.904570 2.497406 0.000000 0.000000 0.000000 0.677572 4.890839 -1.843219 1.368479 -3.731573 -10.472775 24.887394 33.447030 -60.034276 -0.000010 -55.534291 -0.000022 0.000000 0.000000 0.000000 0.677572 4.890839 -1.843219 0.643648 -3.227148 10.144509 -20.059837 -15.360629 35.360347 -0.000003 15.126849 0.000012 0.000000 0.000000 0.000000 
-24.742567 81.658615 -26.134247 0.000000 0.000000 0.000000 7.571160 0.417172 -1.782972 -28.448986 1.224346 21.213755 36.315457 8.743772 1.453471 13.740079 25.523478 6.969387 0.000000 0.000000 0.000000 7.571160 0.417172 -1.782972 -3.177038 -10.368394 -11.136740 17.088288 -0.286847 0.015915 -4.796837 -1.282352 18.674492 0.000000 0.000000 0.000000 7.571160 0.417172 -1.782972 -0.000001 0.000000 0.000000 0.355115 2.650327 -5.005275 0.246712 4.906919 -1.825424 0.000000 0.000000 0.000000 0.336285 4.918690 -1.798404 -0.569950 0.777695 2.477532 0.000000 0.000000 0.000000 0.336285 4.918690 -1.798404 1.324393 -3.512356 -9.976235 25.521258 34.898387 -60.939808 -0.000002 -52.600407 -0.000007 0.000000 0.000000 0.000000 0.336285 4.918690 -1.798404 0.632754 -3.308890 10.128416 -19.911550 -15.912997 34.488965 0.000007 15.415465 -0.000004 0.000000 0.000000 0.000000 
-24.107775 81.346214 -26.112011 0.000000 0.000000 0.000000 8.111475 1.850553 -2.042361 -26.920183 1.933028 22.893667 32.327664 8.668925 1.389318 15.553568 24.578825 7.020185 0.000000 0.000000 0.000000 8.111475 1.850553 -2.042361 -2.699373 -10.246702 -11.166342 16.418276 -1.013380 -0.038781 -5.466814 -1.332433 19.091028 0.000000 0.000000 0.000000 8.111475 1.850553 -2.042361 0.000000 0.000000 0.000000 0.179203 2.599778 -4.607351 -0.065129 4.801777 -1.765549 0.000000 0.000000 0.000000 0.015451 4.817057 -1.741470 -0.668510 0.646881 2.444039 0.000000 0.000000 0.000000 0.015451 4.817057 -1.741470 1.286811 -3.329780 -9.552043 25.493498 36.374138 -61.035267 0.000011 -49.480332 0.000012 0.000000 0.000000 0.000000 0.015451 4.817057 -1.741470 0.620392 -3.385778 10.077469 -19.807637 -16.547115 33.698753 -0.000007 15.464605 0.000011 0.000000 0.000000 0.000000 
